<mxfile modified="2024-03-05T06:36:11.602Z" host="app.diagrams.net" agent="Mozilla/5.0 (Windows NT 10.0; Win64; x64) AppleWebKit/537.36 (KHTML, like Gecko) Chrome/122.0.0.0 Safari/537.36" etag="SyCjPUKN6Cawj2fH9pTG" version="24.0.1" type="github">
  <diagram id="gDS6UTmfZ5zEJN9RFTvb" name="ページ2">
    <mxGraphModel dx="1588" dy="824" grid="1" gridSize="10" guides="1" tooltips="1" connect="1" arrows="1" fold="1" page="1" pageScale="1" pageWidth="827" pageHeight="1169" math="0" shadow="0">
      <root>
        <mxCell id="0" />
        <mxCell id="1" parent="0" />
        <mxCell id="SSoVF2NeELFe5rGHKDCu-4" value="AWS Cloud" style="points=[[0,0],[0.25,0],[0.5,0],[0.75,0],[1,0],[1,0.25],[1,0.5],[1,0.75],[1,1],[0.75,1],[0.5,1],[0.25,1],[0,1],[0,0.75],[0,0.5],[0,0.25]];outlineConnect=0;gradientColor=none;html=1;whiteSpace=wrap;fontSize=12;fontStyle=0;container=1;pointerEvents=0;collapsible=0;recursiveResize=0;shape=mxgraph.aws4.group;grIcon=mxgraph.aws4.group_aws_cloud;strokeColor=#232F3E;fillColor=none;verticalAlign=top;align=left;spacingLeft=30;fontColor=#232F3E;dashed=0;" vertex="1" parent="1">
          <mxGeometry x="30" y="130" width="770" height="910" as="geometry" />
        </mxCell>
        <mxCell id="SSoVF2NeELFe5rGHKDCu-5" value="ap-northeast-1" style="points=[[0,0],[0.25,0],[0.5,0],[0.75,0],[1,0],[1,0.25],[1,0.5],[1,0.75],[1,1],[0.75,1],[0.5,1],[0.25,1],[0,1],[0,0.75],[0,0.5],[0,0.25]];outlineConnect=0;gradientColor=none;html=1;whiteSpace=wrap;fontSize=12;fontStyle=0;container=1;pointerEvents=0;collapsible=0;recursiveResize=0;shape=mxgraph.aws4.group;grIcon=mxgraph.aws4.group_region;strokeColor=#00A4A6;fillColor=none;verticalAlign=top;align=left;spacingLeft=30;fontColor=#147EBA;dashed=1;" vertex="1" parent="1">
          <mxGeometry x="60" y="170" width="710" height="830" as="geometry" />
        </mxCell>
        <mxCell id="SSoVF2NeELFe5rGHKDCu-44" style="edgeStyle=orthogonalEdgeStyle;rounded=0;orthogonalLoop=1;jettySize=auto;html=1;startArrow=classic;startFill=1;" edge="1" parent="SSoVF2NeELFe5rGHKDCu-5" source="SSoVF2NeELFe5rGHKDCu-14" target="SSoVF2NeELFe5rGHKDCu-37">
          <mxGeometry relative="1" as="geometry" />
        </mxCell>
        <mxCell id="SSoVF2NeELFe5rGHKDCu-14" value="IGW" style="sketch=0;outlineConnect=0;fontColor=#232F3E;gradientColor=none;fillColor=#8C4FFF;strokeColor=none;dashed=0;verticalLabelPosition=bottom;verticalAlign=top;align=center;html=1;fontSize=12;fontStyle=0;aspect=fixed;pointerEvents=1;shape=mxgraph.aws4.internet_gateway;" vertex="1" parent="SSoVF2NeELFe5rGHKDCu-5">
          <mxGeometry x="315" y="90" width="78" height="78" as="geometry" />
        </mxCell>
        <mxCell id="SSoVF2NeELFe5rGHKDCu-16" value="VPC(10.0.0.0/16&lt;span style=&quot;background-color: initial;&quot;&gt;)&lt;/span&gt;" style="points=[[0,0],[0.25,0],[0.5,0],[0.75,0],[1,0],[1,0.25],[1,0.5],[1,0.75],[1,1],[0.75,1],[0.5,1],[0.25,1],[0,1],[0,0.75],[0,0.5],[0,0.25]];outlineConnect=0;gradientColor=none;html=1;whiteSpace=wrap;fontSize=12;fontStyle=0;container=1;pointerEvents=0;collapsible=0;recursiveResize=0;shape=mxgraph.aws4.group;grIcon=mxgraph.aws4.group_vpc2;strokeColor=#8C4FFF;fillColor=none;verticalAlign=top;align=left;spacingLeft=30;fontColor=#AAB7B8;dashed=0;" vertex="1" parent="SSoVF2NeELFe5rGHKDCu-5">
          <mxGeometry x="30" y="130" width="650" height="660" as="geometry" />
        </mxCell>
        <mxCell id="SSoVF2NeELFe5rGHKDCu-17" value="Availability Zone-1a" style="fillColor=none;strokeColor=#147EBA;dashed=1;verticalAlign=top;fontStyle=0;fontColor=#147EBA;whiteSpace=wrap;html=1;" vertex="1" parent="SSoVF2NeELFe5rGHKDCu-16">
          <mxGeometry x="30" y="40" width="240" height="590" as="geometry" />
        </mxCell>
        <mxCell id="SSoVF2NeELFe5rGHKDCu-28" value="Public subnet" style="points=[[0,0],[0.25,0],[0.5,0],[0.75,0],[1,0],[1,0.25],[1,0.5],[1,0.75],[1,1],[0.75,1],[0.5,1],[0.25,1],[0,1],[0,0.75],[0,0.5],[0,0.25]];outlineConnect=0;gradientColor=none;html=1;whiteSpace=wrap;fontSize=12;fontStyle=0;container=1;pointerEvents=0;collapsible=0;recursiveResize=0;shape=mxgraph.aws4.group;grIcon=mxgraph.aws4.group_security_group;grStroke=0;strokeColor=#7AA116;fillColor=#F2F6E8;verticalAlign=top;align=left;spacingLeft=30;fontColor=#248814;dashed=0;" vertex="1" parent="SSoVF2NeELFe5rGHKDCu-16">
          <mxGeometry x="410" y="90" width="180" height="170" as="geometry" />
        </mxCell>
        <mxCell id="SSoVF2NeELFe5rGHKDCu-29" value="Availability Zone-1c" style="fillColor=none;strokeColor=#147EBA;dashed=1;verticalAlign=top;fontStyle=0;fontColor=#147EBA;whiteSpace=wrap;html=1;" vertex="1" parent="SSoVF2NeELFe5rGHKDCu-16">
          <mxGeometry x="380" y="40" width="240" height="590" as="geometry" />
        </mxCell>
        <mxCell id="SSoVF2NeELFe5rGHKDCu-32" value="&lt;span style=&quot;background-color: rgb(230, 246, 247);&quot;&gt;Private subnet&lt;/span&gt;&lt;div&gt;&lt;span style=&quot;background-color: rgb(230, 246, 247);&quot;&gt;(&lt;span style=&quot;color: rgb(84, 91, 100); font-family: &amp;quot;Amazon Ember&amp;quot;, &amp;quot;Helvetica Neue&amp;quot;, Roboto, Arial, sans-serif; text-wrap: nowrap;&quot;&gt;10.0.48.0/20&lt;/span&gt;)&lt;/span&gt;&lt;/div&gt;" style="points=[[0,0],[0.25,0],[0.5,0],[0.75,0],[1,0],[1,0.25],[1,0.5],[1,0.75],[1,1],[0.75,1],[0.5,1],[0.25,1],[0,1],[0,0.75],[0,0.5],[0,0.25]];outlineConnect=0;gradientColor=none;html=1;whiteSpace=wrap;fontSize=12;fontStyle=0;container=1;pointerEvents=0;collapsible=0;recursiveResize=0;shape=mxgraph.aws4.group;grIcon=mxgraph.aws4.group_security_group;grStroke=0;strokeColor=#00A4A6;fillColor=#E6F6F7;verticalAlign=top;align=left;spacingLeft=30;fontColor=#147EBA;dashed=0;" vertex="1" parent="SSoVF2NeELFe5rGHKDCu-16">
          <mxGeometry x="410" y="410" width="180" height="170" as="geometry" />
        </mxCell>
        <mxCell id="SSoVF2NeELFe5rGHKDCu-33" value="&lt;span style=&quot;background-color: rgb(242, 246, 232);&quot;&gt;Public subnet&lt;/span&gt;&lt;div&gt;&lt;span style=&quot;color: rgb(84, 91, 100); font-family: &amp;quot;Amazon Ember&amp;quot;, &amp;quot;Helvetica Neue&amp;quot;, Roboto, Arial, sans-serif; text-wrap: nowrap; background-color: rgb(242, 246, 232);&quot;&gt;(10.0.32.0/20)&lt;/span&gt;&lt;br&gt;&lt;/div&gt;" style="points=[[0,0],[0.25,0],[0.5,0],[0.75,0],[1,0],[1,0.25],[1,0.5],[1,0.75],[1,1],[0.75,1],[0.5,1],[0.25,1],[0,1],[0,0.75],[0,0.5],[0,0.25]];outlineConnect=0;gradientColor=none;html=1;whiteSpace=wrap;fontSize=12;fontStyle=0;container=1;pointerEvents=0;collapsible=0;recursiveResize=0;shape=mxgraph.aws4.group;grIcon=mxgraph.aws4.group_security_group;grStroke=0;strokeColor=#7AA116;fillColor=#F2F6E8;verticalAlign=top;align=left;spacingLeft=30;fontColor=#248814;dashed=0;" vertex="1" parent="SSoVF2NeELFe5rGHKDCu-16">
          <mxGeometry x="410" y="90" width="180" height="170" as="geometry" />
        </mxCell>
        <mxCell id="SSoVF2NeELFe5rGHKDCu-35" value="Public subnet&lt;div&gt;&lt;span style=&quot;color: rgb(84, 91, 100); font-family: &amp;quot;Amazon Ember&amp;quot;, &amp;quot;Helvetica Neue&amp;quot;, Roboto, Arial, sans-serif; text-wrap: nowrap; background-color: rgb(242, 246, 232);&quot;&gt;(10.0.0.0/20)&lt;/span&gt;&lt;br&gt;&lt;/div&gt;" style="points=[[0,0],[0.25,0],[0.5,0],[0.75,0],[1,0],[1,0.25],[1,0.5],[1,0.75],[1,1],[0.75,1],[0.5,1],[0.25,1],[0,1],[0,0.75],[0,0.5],[0,0.25]];outlineConnect=0;gradientColor=none;html=1;whiteSpace=wrap;fontSize=12;fontStyle=0;container=1;pointerEvents=0;collapsible=0;recursiveResize=0;shape=mxgraph.aws4.group;grIcon=mxgraph.aws4.group_security_group;grStroke=0;strokeColor=#7AA116;fillColor=#F2F6E8;verticalAlign=top;align=left;spacingLeft=30;fontColor=#248814;dashed=0;" vertex="1" parent="SSoVF2NeELFe5rGHKDCu-16">
          <mxGeometry x="60" y="90" width="180" height="170" as="geometry" />
        </mxCell>
        <mxCell id="SSoVF2NeELFe5rGHKDCu-40" value="EC2" style="sketch=0;points=[[0,0,0],[0.25,0,0],[0.5,0,0],[0.75,0,0],[1,0,0],[0,1,0],[0.25,1,0],[0.5,1,0],[0.75,1,0],[1,1,0],[0,0.25,0],[0,0.5,0],[0,0.75,0],[1,0.25,0],[1,0.5,0],[1,0.75,0]];outlineConnect=0;fontColor=#232F3E;fillColor=#ED7100;strokeColor=#ffffff;dashed=0;verticalLabelPosition=bottom;verticalAlign=top;align=center;html=1;fontSize=12;fontStyle=0;aspect=fixed;shape=mxgraph.aws4.resourceIcon;resIcon=mxgraph.aws4.ec2;" vertex="1" parent="SSoVF2NeELFe5rGHKDCu-35">
          <mxGeometry x="50" y="46" width="78" height="78" as="geometry" />
        </mxCell>
        <mxCell id="SSoVF2NeELFe5rGHKDCu-36" value="Private subnet&lt;div&gt;&lt;span style=&quot;background-color: rgb(230, 246, 247);&quot;&gt;(&lt;span style=&quot;color: rgb(84, 91, 100); font-family: &amp;quot;Amazon Ember&amp;quot;, &amp;quot;Helvetica Neue&amp;quot;, Roboto, Arial, sans-serif; text-wrap: nowrap;&quot;&gt;10.0.16.0/20&lt;/span&gt;)&lt;/span&gt;&lt;/div&gt;" style="points=[[0,0],[0.25,0],[0.5,0],[0.75,0],[1,0],[1,0.25],[1,0.5],[1,0.75],[1,1],[0.75,1],[0.5,1],[0.25,1],[0,1],[0,0.75],[0,0.5],[0,0.25]];outlineConnect=0;gradientColor=none;html=1;whiteSpace=wrap;fontSize=12;fontStyle=0;container=1;pointerEvents=0;collapsible=0;recursiveResize=0;shape=mxgraph.aws4.group;grIcon=mxgraph.aws4.group_security_group;grStroke=0;strokeColor=#00A4A6;fillColor=#E6F6F7;verticalAlign=top;align=left;spacingLeft=30;fontColor=#147EBA;dashed=0;" vertex="1" parent="SSoVF2NeELFe5rGHKDCu-16">
          <mxGeometry x="60" y="410" width="180" height="170" as="geometry" />
        </mxCell>
        <mxCell id="SSoVF2NeELFe5rGHKDCu-39" value="RDS" style="sketch=0;points=[[0,0,0],[0.25,0,0],[0.5,0,0],[0.75,0,0],[1,0,0],[0,1,0],[0.25,1,0],[0.5,1,0],[0.75,1,0],[1,1,0],[0,0.25,0],[0,0.5,0],[0,0.75,0],[1,0.25,0],[1,0.5,0],[1,0.75,0]];outlineConnect=0;fontColor=#232F3E;fillColor=#C925D1;strokeColor=#ffffff;dashed=0;verticalLabelPosition=bottom;verticalAlign=top;align=center;html=1;fontSize=12;fontStyle=0;aspect=fixed;shape=mxgraph.aws4.resourceIcon;resIcon=mxgraph.aws4.rds;" vertex="1" parent="SSoVF2NeELFe5rGHKDCu-36">
          <mxGeometry x="51" y="46" width="78" height="78" as="geometry" />
        </mxCell>
        <mxCell id="SSoVF2NeELFe5rGHKDCu-45" value="" style="edgeStyle=orthogonalEdgeStyle;rounded=0;orthogonalLoop=1;jettySize=auto;html=1;startArrow=classic;startFill=1;" edge="1" parent="SSoVF2NeELFe5rGHKDCu-16" source="SSoVF2NeELFe5rGHKDCu-37" target="SSoVF2NeELFe5rGHKDCu-40">
          <mxGeometry relative="1" as="geometry" />
        </mxCell>
        <mxCell id="SSoVF2NeELFe5rGHKDCu-37" value="ALB" style="sketch=0;outlineConnect=0;fontColor=#232F3E;gradientColor=none;fillColor=#8C4FFF;strokeColor=none;dashed=0;verticalLabelPosition=bottom;verticalAlign=top;align=center;html=1;fontSize=12;fontStyle=0;aspect=fixed;pointerEvents=1;shape=mxgraph.aws4.application_load_balancer;" vertex="1" parent="SSoVF2NeELFe5rGHKDCu-16">
          <mxGeometry x="286" y="136" width="78" height="78" as="geometry" />
        </mxCell>
        <mxCell id="SSoVF2NeELFe5rGHKDCu-46" style="edgeStyle=orthogonalEdgeStyle;rounded=0;orthogonalLoop=1;jettySize=auto;html=1;entryX=1;entryY=1;entryDx=0;entryDy=0;entryPerimeter=0;exitX=1;exitY=0.25;exitDx=0;exitDy=0;exitPerimeter=0;startArrow=classic;startFill=1;" edge="1" parent="SSoVF2NeELFe5rGHKDCu-16" source="SSoVF2NeELFe5rGHKDCu-40">
          <mxGeometry relative="1" as="geometry">
            <mxPoint x="188" y="147" as="sourcePoint" />
            <mxPoint x="188" y="-60" as="targetPoint" />
            <Array as="points">
              <mxPoint x="230" y="155" />
              <mxPoint x="230" y="-60" />
            </Array>
          </mxGeometry>
        </mxCell>
        <mxCell id="SSoVF2NeELFe5rGHKDCu-48" value="" style="edgeStyle=orthogonalEdgeStyle;rounded=0;orthogonalLoop=1;jettySize=auto;html=1;entryX=1;entryY=0.5;entryDx=0;entryDy=0;entryPerimeter=0;exitX=1;exitY=0.75;exitDx=0;exitDy=0;exitPerimeter=0;startArrow=classic;startFill=1;" edge="1" parent="SSoVF2NeELFe5rGHKDCu-16" source="SSoVF2NeELFe5rGHKDCu-40" target="SSoVF2NeELFe5rGHKDCu-39">
          <mxGeometry relative="1" as="geometry">
            <mxPoint x="240.00000000000023" y="390" as="sourcePoint" />
            <mxPoint x="198" y="300" as="targetPoint" />
            <Array as="points">
              <mxPoint x="230" y="195" />
              <mxPoint x="230" y="495" />
            </Array>
          </mxGeometry>
        </mxCell>
        <mxCell id="SSoVF2NeELFe5rGHKDCu-38" value="S3" style="sketch=0;points=[[0,0,0],[0.25,0,0],[0.5,0,0],[0.75,0,0],[1,0,0],[0,1,0],[0.25,1,0],[0.5,1,0],[0.75,1,0],[1,1,0],[0,0.25,0],[0,0.5,0],[0,0.75,0],[1,0.25,0],[1,0.5,0],[1,0.75,0]];outlineConnect=0;fontColor=#232F3E;fillColor=#7AA116;strokeColor=#ffffff;dashed=0;verticalLabelPosition=bottom;verticalAlign=top;align=center;html=1;fontSize=12;fontStyle=0;aspect=fixed;shape=mxgraph.aws4.resourceIcon;resIcon=mxgraph.aws4.s3;" vertex="1" parent="SSoVF2NeELFe5rGHKDCu-5">
          <mxGeometry x="140" y="20" width="78" height="78" as="geometry" />
        </mxCell>
        <mxCell id="SSoVF2NeELFe5rGHKDCu-12" value="" style="edgeStyle=orthogonalEdgeStyle;rounded=0;orthogonalLoop=1;jettySize=auto;html=1;startArrow=classic;startFill=1;" edge="1" parent="1" source="SSoVF2NeELFe5rGHKDCu-8" target="SSoVF2NeELFe5rGHKDCu-10">
          <mxGeometry relative="1" as="geometry">
            <mxPoint x="551" y="59" as="targetPoint" />
          </mxGeometry>
        </mxCell>
        <mxCell id="SSoVF2NeELFe5rGHKDCu-8" value="User" style="sketch=0;outlineConnect=0;fontColor=#232F3E;gradientColor=default;fillColor=#232F3D;strokeColor=#000000;dashed=0;verticalLabelPosition=bottom;verticalAlign=top;align=center;html=1;fontSize=12;fontStyle=0;aspect=fixed;pointerEvents=1;shape=mxgraph.aws4.users;comic=0;" vertex="1" parent="1">
          <mxGeometry x="630" y="20" width="78" height="78" as="geometry" />
        </mxCell>
        <mxCell id="SSoVF2NeELFe5rGHKDCu-15" value="" style="edgeStyle=orthogonalEdgeStyle;rounded=0;orthogonalLoop=1;jettySize=auto;html=1;startArrow=classic;startFill=1;" edge="1" parent="1" source="SSoVF2NeELFe5rGHKDCu-10" target="SSoVF2NeELFe5rGHKDCu-14">
          <mxGeometry relative="1" as="geometry" />
        </mxCell>
        <mxCell id="SSoVF2NeELFe5rGHKDCu-10" value="Internet" style="sketch=0;outlineConnect=0;fontColor=#232F3E;gradientColor=none;fillColor=#232F3D;strokeColor=none;dashed=0;verticalLabelPosition=bottom;verticalAlign=top;align=center;html=1;fontSize=12;fontStyle=0;aspect=fixed;pointerEvents=1;shape=mxgraph.aws4.internet;" vertex="1" parent="1">
          <mxGeometry x="375" y="35" width="78" height="48" as="geometry" />
        </mxCell>
      </root>
    </mxGraphModel>
  </diagram>
</mxfile>
